<?xml version="1.0" encoding="utf-8"?>
<!-- Generator: Adobe Illustrator 16.0.0, SVG Export Plug-In . SVG Version: 6.00 Build 0)  -->
<!DOCTYPE svg PUBLIC "-//W3C//DTD SVG 1.1//EN" "http://www.w3.org/Graphics/SVG/1.1/DTD/svg11.dtd">
<svg version="1.1" id="Calque_1" xmlns="http://www.w3.org/2000/svg" xmlns:xlink="http://www.w3.org/1999/xlink" x="0px" y="0px"
	 width="3030.671px" height="3688.348px" viewBox="0 0 3030.671 3688.348" enable-background="new 0 0 3030.671 3688.348"
	 xml:space="preserve">
<g>
	<path fill="#D5B170" d="M2220.606,1021.831c0,0,83.616,79.512,71.714,133.864c-11.902,54.354-35.708,106.3-86.295,129.426
		c-50.586,23.127-127.27,33.406-154.393-0.001C2086.998,1239.804,2173.49,1154.585,2220.606,1021.831z"/>
	<path fill="#D5B170" d="M1042.407,503.201c0,0-51.284-42.779-107.117-23.135c-55.824,19.644-144.21,56.962-143.363,137.478
		c0.837,80.513,15.251,169.208,119.254,210.984C911.18,828.528,918.615,612.157,1042.407,503.201z"/>
	<path fill="#D5B170" d="M1693.604,1373.961c804.49-341.859,371.415-811.332,294.777-920.27
		c-31.902-45.356-29.001-82.599-14.797-110.674c-69.742-47.519-229.466-141.669-372.215-123.076
		c-68.026,3.559-292.987,9.25-512.643,220.544c-22.179,23.667-215.236,217.913-163.593,532.155c0,0,91.492,269.519,286.991,364.288
		c3.358,1.892,180.958,103.603,401.53,105.967C1616.921,1409.14,1674.158,1382.23,1693.604,1373.961z"/>
	<path fill="#D09458" d="M2221.258,729.709c0,0-37.644-232.749-217.655-365.187c-5.922-4.518-16.245-12.114-30.019-21.505
		c-14.204,28.076-17.105,65.318,14.797,110.674c76.638,108.938,509.713,578.41-294.777,920.27
		c-19.446,8.27-76.683,35.179-79.948,68.934c68.509,0.738,141.123-7.994,213.993-32.424
		C1832.031,1408.959,2284.682,1309.048,2221.258,729.709z"/>
	<path fill="#D09458" d="M1603.211,1771.981c33.518,15.259,56.539,25.713,56.539,25.713s116.811-24.022,238.478-53.611
		c34.721-8.444,87.645-23.395,147.768-41.602C1825.127,1640.312,1684.992,1702.431,1603.211,1771.981z"/>
	<path fill="#D5B170" d="M2676.612,1290.579c-10.245-20.137-23.01-49.44-46.745-60.246
		c-17.121,174.379-328.666,260.928-505.413,282.449c-198.062,24.12-544.743-4.313-731.136-36.504
		c-186.405-32.19-280.72-204.737-280.72-204.737l-0.013-0.011c-30.285-24.239-57.252-51.34-75.968-80.934
		c-80.297-126.956-97.859-224.542-131.411-236.753c-33.558-12.206-82.506-58.517-117.603-95.914
		c-35.099-37.403-154.714-171.297-189.887-234.015c0,0-55.736-96.249-67.366-168.219c-11.64-71.974-36.771-132.416-84.834-96.563
		c-48.066,35.854-154.213,140.333-98.128,238.163c56.089,97.837,288.837,501.564,330.219,566.175
		c41.374,64.612,87.148,166.65,109.996,213.692c22.852,47.045,62.326,54.555,96.667,66.936c0,0,421.687,190.161,509.047,231.261
		c56.066,26.385,149.857,69.266,209.894,96.622c81.78-69.551,221.916-131.67,442.784-69.5
		c150.545-45.588,346.538-111.674,416.879-147.835C2561.328,1504.062,2716.242,1429.24,2676.612,1290.579z"/>
	<path fill="#D09458" d="M1393.318,1476.278c186.393,32.191,533.074,60.624,731.136,36.504
		c176.747-21.521,488.292-108.069,505.413-282.449c-19.148-8.712-45.407-5.434-83.376,24.577
		c-85.063,67.236-233.929,176.626-476.446,185.125c-242.513,8.504-324.703-3.241-386.477,0.319
		c-61.775,3.57-170.016,39.823-335.358-40.822c0,0-135.992-48.259-235.624-128.002l0.013,0.011
		C1112.598,1271.542,1206.913,1444.088,1393.318,1476.278z"/>
	<path fill="#252A5A" d="M3000.949,2548.414c-3.132,0-6.306-0.503-9.444-1.557l-767.573-257.509
		c-15.564-5.214-23.934-22.062-18.726-37.62c5.229-15.555,22.08-23.941,37.62-18.716l767.568,257.515
		c15.57,5.207,23.94,22.056,18.73,37.614C3024.952,2540.557,3013.369,2548.414,3000.949,2548.414z"/>
	<path fill="#252A5A" d="M2723.619,2901.986c-6.439,0-12.932-2.08-18.383-6.382l-514.979-406.038
		c-12.88-10.152-15.1-28.844-4.935-41.725c10.178-12.894,28.851-15.097,41.735-4.938l514.967,406.039
		c12.885,10.157,15.105,28.842,4.934,41.727C2741.101,2898.102,2732.395,2901.986,2723.619,2901.986z"/>
	<path fill="#252A5A" d="M2208.687,2944.664c-10.089,0-19.911-5.137-25.491-14.401l-181.853-302.169
		c-8.459-14.059-3.925-32.315,10.141-40.773c14.048-8.473,32.302-3.92,40.771,10.132l181.858,302.172
		c8.457,14.059,3.923,32.313-10.134,40.773C2219.189,2943.281,2213.894,2944.664,2208.687,2944.664z"/>
	<path fill="#252A5A" d="M1609.419,1466.38c-346.522,0-720.521-234.198-720.521-612.565c0-349.542,332.933-656.153,712.472-656.153
		c360.778,0,654.294,294.338,654.294,656.149C2255.664,1208.758,1983.882,1466.38,1609.419,1466.38z M1601.37,242.226
		c-355.791,0-667.906,285.788-667.906,611.589c0,350.834,350.876,567.995,675.956,567.995c348.642,0,601.672-238.88,601.672-567.999
		C2211.091,516.575,1937.575,242.226,1601.37,242.226z"/>
	<path fill="#252A5A" d="M2135.179,1329.679c-38.744,0-71.137-12.256-96.321-36.417c-8.874-8.513-9.17-22.628-0.64-31.506
		c8.497-8.885,22.632-9.17,31.506-0.648c16.582,15.927,38.615,24,65.455,24c72.566,0,131.598-59.036,131.598-131.608
		c0-47.322-25.59-91.221-66.796-114.572c-10.705-6.072-14.483-19.672-8.403-30.377c6.066-10.708,19.707-14.456,30.37-8.405
		c55.144,31.257,89.396,90.009,89.396,153.354C2311.343,1250.646,2232.318,1329.679,2135.179,1329.679z"/>
	<path fill="#252A5A" d="M904.973,849.531c-1.998,0-4.05-0.273-6.079-0.842c-64.779-18.307-108.966-68.56-127.773-145.332
		c-12.752-52.026-4.48-105.91,23.307-151.725c27.772-45.806,71.718-78.053,123.744-90.809c42.671-10.462,81.622-5.731,115.79,14.016
		c10.655,6.172,14.286,19.796,8.144,30.454c-6.185,10.648-19.818,14.274-30.456,8.144c-23.875-13.82-51.765-16.957-82.853-9.329
		c-40.474,9.922-74.659,35.002-96.261,70.632c-21.61,35.631-28.048,77.542-18.123,118.018
		c10.288,42.024,35.413,95.744,96.612,113.04c11.832,3.342,18.726,15.663,15.377,27.502
		C923.628,843.123,914.697,849.531,904.973,849.531z"/>
	<path fill="#252A5A" d="M1379.146,809.042c-2.388,0-4.813-0.396-7.205-1.205c-11.648-3.993-17.855-16.66-13.874-28.298
		c5.777-16.894,8.713-34.894,8.713-53.503c0-73.723-46.663-133.708-104.01-133.708c-45.153,0-86.032,38.817-99.412,94.41
		c-2.866,11.971-14.925,19.352-26.868,16.447c-11.967-2.879-19.342-14.91-16.449-26.876
		c18.205-75.69,76.894-128.553,142.729-128.553c81.923,0,148.575,79.979,148.575,178.28c0,23.526-3.743,46.373-11.118,67.923
		C1397.063,803.215,1388.422,809.042,1379.146,809.042z"/>
	<path fill="#252A5A" d="M2025.787,1071.009c-2.4,0-4.817-0.387-7.213-1.202c-11.652-3.985-17.858-16.656-13.873-28.292
		c5.777-16.901,8.713-34.896,8.713-53.506c0-73.722-46.664-133.707-104.016-133.707c-45.145,0-86.032,38.825-99.406,94.41
		c-2.872,11.972-14.931,19.34-26.874,16.452c-11.96-2.876-19.329-14.912-16.446-26.885
		c18.215-75.688,76.891-128.547,142.727-128.547c81.932,0,148.576,79.977,148.576,178.277c0,23.53-3.738,46.382-11.113,67.926
		C2043.7,1065.188,2035.057,1071.009,2025.787,1071.009z"/>
	<path fill="#F18A7D" d="M1393.318,1071.331c50.363,79.494,119.974,79.041,179.516,56.293
		C1524.129,1043.061,1447.105,1051.228,1393.318,1071.331z"/>
	<path fill="#252A5A" d="M1507.706,1155.694h-0.019c-52.098,0-94.79-25.713-126.925-76.417c-2.4-3.78-2.964-8.436-1.534-12.678
		c1.43-4.243,4.695-7.619,8.891-9.188c25.312-9.462,49.646-14.256,72.303-14.256c52.928-0.004,96.255,26.641,125.279,77.055
		c2.174,3.767,2.58,8.292,1.128,12.392c-1.465,4.095-4.639,7.346-8.702,8.902C1553.48,1150.925,1529.767,1155.694,1507.706,1155.694
		z M1417.005,1079.214c24.678,31.435,54.485,46.772,90.7,46.77l0,0c13.274,0,27.42-2.126,42.229-6.35
		C1518.613,1077.009,1473.043,1063.694,1417.005,1079.214z"/>
	<path fill="#696D97" d="M1339.544,909.271c12.169,73.945,31.018,126.135,53.773,162.059
		c53.787-20.103,130.812-28.27,179.516,56.293c66.73-25.491,120.771-78.901,120.771-78.901
		C1468.291,1059.427,1339.544,909.271,1339.544,909.271z"/>
	<path fill="#252A5A" d="M1572.833,1142.479c-5.184,0-10.159-2.721-12.867-7.445c-34.501-59.88-90.839-76.188-161.461-49.792
		c-6.572,2.453-13.982-0.025-17.743-5.965c-25.364-40.051-44.16-96.435-55.87-167.587c-1.091-6.573,2.337-13.054,8.364-15.862
		c5.992-2.819,13.181-1.3,17.563,3.761c1.198,1.396,127.234,144.514,342.083,134.295c6.368-0.225,11.837,3.231,14.313,8.869
		c2.47,5.638,1.208,12.211-3.161,16.535c-2.302,2.28-57.056,55.91-125.928,82.216
		C1576.403,1142.165,1574.606,1142.479,1572.833,1142.479z M1460.421,1043.155c48.898-0.004,89.588,22.736,118.398,65.948
		c29.25-12.845,55.468-30.706,74.298-45.296c-141.96-5.03-240.972-70.089-289.931-111.358
		c9.462,40.531,21.735,74.305,36.685,100.881C1420.963,1046.573,1441.287,1043.155,1460.421,1043.155z"/>
	<path fill="#252A5A" d="M1875.55,304.652c-10.729,0-20.19-7.788-21.963-18.737c-1.953-12.125,6.26-23.535,18.354-25.543
		c1.038-0.181,58.021-10.578,83.143-59.108c10.985-21.195,18.221-67.36-1.096-99.126c-14.124-23.212-40.429-34.976-78.178-34.976
		c-35.032,0-62.854,22.905-66.865,44.304c-3.742,19.981,15.805,32.079,32.866,38.702c13.688,5.331,29.195,11.316,50.965-25.909
		c6.236-10.625,19.887-14.188,30.489-7.979c10.622,6.222,14.192,19.87,7.984,30.494c-40.956,70.006-89.606,51.154-105.573,44.941
		c-45.005-17.479-67.633-50.537-60.53-88.455c8.475-45.234,57.084-80.67,110.664-80.67c67.737,0,100.599,30.663,116.257,56.387
		c27.142,44.624,21.845,105.603,2.598,142.78c-35.717,68.993-112.294,82.082-115.522,82.611
		C1877.933,304.553,1876.73,304.652,1875.55,304.652z"/>
	<path fill="#252A5A" d="M1584.888,1786.27c-3.139,0-6.325-0.666-9.359-2.078l-161.557-74.833
		c-3.936-1.806-402.282-184.695-571.227-259.314c-65.931-29.106-75.008-54.393-84.347-93.235
		c-4.841-20.125-10.329-42.919-31.554-75.577C595.881,1079.734,423.5,802.513,346.042,626.068
		c-46.995-107.023-7.546-202.691,40.502-252.109c36.184-37.186,79.691-51.733,113.5-38c19.452,7.902,52.097,32.414,52.097,107.823
		c0,190.686,390.075,532.722,394.021,536.156c9.281,8.079,10.241,22.16,2.163,31.439c-8.102,9.272-22.156,10.25-31.443,2.161
		c-16.709-14.561-409.306-359.006-409.306-569.756c0-36.011-8.857-60.262-24.306-66.529c-16.167-6.595-42.246,4.604-64.779,27.781
		c-38.399,39.485-69.726,116.376-31.652,203.118c60.363,137.493,190.869,361.837,377.377,648.794
		c25.387,39.069,32.396,68.178,37.521,89.443c7.004,29.145,9.91,41.212,59.002,62.89
		c169.265,74.743,567.896,257.773,571.901,259.609l161.633,74.873c11.154,5.176,16.012,18.42,10.851,29.584
		C1601.353,1781.484,1593.303,1786.27,1584.888,1786.27z"/>
	<path fill="#252A5A" d="M1673.228,1819.986c-10.348,0-19.632-7.264-21.795-17.805c-2.481-12.05,5.283-23.829,17.325-26.312
		c31.11-6.398,44.002-11.846,57.681-17.616c21.902-9.235,44.525-18.784,129.473-29.659
		c135.371-17.336,508.039-135.944,694.247-243.811c83.027-48.098,107.78-123.943,103.751-174.274
		c-2.34-29.315-14.452-51.61-31.621-58.171c-19.018-7.306-46.371,4.194-75.078,31.478
		c-259.779,246.956-832.009,181.124-856.27,178.188c-12.223-1.473-20.921-12.571-19.456-24.79
		c1.465-12.23,12.622-20.945,24.794-19.46c5.746,0.679,575.7,66.222,820.234-166.242c57.02-54.202,100.73-48.823,121.707-40.799
		c33.865,12.955,56.334,48.936,60.129,96.245c5.063,63.255-24.876,157.879-125.846,216.386
		c-190.414,110.308-572.127,231.684-710.938,249.454c-78.896,10.104-97.796,18.078-117.806,26.527
		c-14.354,6.05-30.622,12.914-65.998,20.197C1676.228,1819.836,1674.726,1819.986,1673.228,1819.986z"/>
	<path fill="#DADADA" d="M1133.851,2862.48c51.615-85.303,24.345-196.272-60.845-247.935
		c-28.106-17.011-59.026-25.297-89.706-25.886c-21.649-44.509-55.667-83.559-101.103-111.112
		c-65.778-39.852-141.835-47.524-210.35-28.06c-16.384-22.777-37.534-42.695-63.077-58.146
		c-101.677-61.648-234.066-29.12-295.627,72.652c-61.581,101.777-29.024,234.241,72.65,295.877
		c33.597,20.34,70.566,30.233,107.21,30.938c19.419,57.138,58.235,108.058,113.873,141.778
		c90.95,55.121,201.66,48.972,284.734-6.253C976.087,2973.644,1083.333,2945.965,1133.851,2862.48z"/>
	<path fill="#C2C2C2" d="M1176.865,2809.738c36.329-60.015,17.134-138.098-42.816-174.444
		c-19.772-11.971-41.52-17.799-63.105-18.215c-15.232-31.313-39.173-58.794-71.149-78.173
		c-46.278-28.048-99.783-33.442-147.993-19.751c-11.531-16.022-26.421-30.038-44.379-40.906
		c-71.533-43.377-164.696-20.49-208.007,51.112c-43.327,71.621-20.423,164.819,51.122,208.186
		c23.625,14.311,49.644,21.273,75.425,21.768c13.665,40.208,40.98,76.03,80.122,99.762c64.002,38.774,141.893,34.452,200.337-4.401
		C1065.864,2887.968,1141.325,2868.489,1176.865,2809.738z"/>
	<polygon fill="#FFEB47" points="571.959,2478.873 1786.187,2820.756 2124.454,2011.099 959.825,1476.285 	"/>
	<path fill="#252A5A" d="M1786.187,2843.051c-1.998,0-4.033-0.279-6.031-0.844L565.92,2500.319
		c-6.05-1.698-11.082-5.871-13.896-11.486c-2.802-5.61-3.126-12.146-0.861-18.001l387.874-1002.585
		c2.214-5.742,6.719-10.305,12.401-12.606c5.713-2.324,12.102-2.165,17.686,0.39l1164.625,534.814
		c10.913,5.016,15.889,17.766,11.262,28.845l-338.261,809.658C1803.216,2837.807,1794.975,2843.051,1786.187,2843.051z
		 M601.583,2464.058l1171.643,329.906l322.375-771.602L972.06,1506.423L601.583,2464.058z"/>
	<polygon fill="#F2A151" points="926.168,1476.285 966.137,2076.262 2073.066,2316.968 	"/>
	<polygon fill="#F2A151" points="942.215,1521.796 699.001,2420.388 1483.074,2727.165 571.959,2478.873 	"/>
	<path fill="#252A5A" d="M1786.187,2843.051c-1.998,0-4.033-0.279-6.031-0.844L565.92,2500.319
		c-6.05-1.698-11.082-5.871-13.896-11.486c-2.802-5.61-3.126-12.146-0.861-18.001l387.874-1002.585
		c2.214-5.742,6.719-10.305,12.401-12.606c5.713-2.324,12.102-2.165,17.686,0.39l1164.625,534.814
		c10.913,5.016,15.889,17.766,11.262,28.845l-338.261,809.658C1803.216,2837.807,1794.975,2843.051,1786.187,2843.051z
		 M601.583,2464.058l1171.643,329.906l322.375-771.602L972.06,1506.423L601.583,2464.058z"/>
	<polygon fill="#FFEB47" points="475.388,1307.397 152.267,2137.381 571.959,2478.873 959.825,1476.285 	"/>
	<path fill="#252A5A" d="M571.959,2501.154c-5.063,0-10.038-1.731-14.059-5.003l-419.694-341.482
		c-7.509-6.111-10.204-16.36-6.7-25.367l323.123-829.984c4.335-11.187,16.726-16.89,28.102-12.964l484.435,168.886
		c5.709,1.986,10.348,6.212,12.879,11.693c2.548,5.484,2.757,11.757,0.57,17.387L592.743,2486.906
		c-2.58,6.654-8.177,11.671-15.07,13.506C575.79,2500.912,573.877,2501.154,571.959,2501.154z M178.926,2130.339l383.31,311.894
		l368.491-952.494l-442.365-154.224L178.926,2130.339z"/>
	<polygon fill="#F2A151" points="917.161,1512.782 556.058,1855.117 259.978,1602.563 	"/>
	<polygon fill="#FFEB47" points="475.388,1307.397 22.272,1580.273 401.113,1801.912 959.825,1476.285 	"/>
	<path fill="#252A5A" d="M401.113,1824.195c-3.888,0-7.775-1.012-11.263-3.046L11.019,1599.519
		c-6.792-3.979-10.983-11.23-11.019-19.098c-0.051-7.875,4.04-15.174,10.787-19.236l453.11-272.884
		c5.679-3.403,12.571-4.116,18.833-1.947l484.435,168.886c8.214,2.865,13.995,10.246,14.844,18.905
		c0.825,8.656-3.452,17.012-10.967,21.388l-558.712,325.634C408.855,1823.194,404.99,1824.195,401.113,1824.195z M65.931,1580.003
		l335.194,196.103l505.679-294.713l-428.87-149.516L65.931,1580.003z"/>
	<polygon fill="#FFEB47" points="959.825,1476.285 1062.208,2025.96 2171.676,2345.362 2124.454,2011.099 	"/>
	<path fill="#252A5A" d="M2171.676,2367.645c-2.062,0-4.132-0.285-6.166-0.866l-1109.47-319.408
		c-8.107-2.331-14.197-9.033-15.736-17.327l-102.383-549.68c-1.528-8.187,1.639-16.534,8.212-21.655
		c6.561-5.126,15.436-6.144,22.991-2.679l1164.625,534.814c6.891,3.167,11.711,9.63,12.773,17.133l47.215,334.27
		c1.069,7.474-1.75,14.98-7.438,19.935C2182.184,2365.756,2176.971,2367.645,2171.676,2367.645z M1081.59,2008.356l1063.212,306.081
		l-40.718-288.17L989.613,1514.48L1081.59,2008.356z"/>
	<polygon fill="#FFFACC" points="1062.208,2025.96 959.825,1476.285 1673.257,1803.9 1052.258,1596.803 	"/>
	<path fill="#252A5A" d="M2171.676,2367.645c-2.062,0-4.132-0.285-6.166-0.866l-1109.47-319.408
		c-8.107-2.331-14.197-9.033-15.736-17.327l-102.383-549.68c-1.528-8.187,1.639-16.534,8.212-21.655
		c6.561-5.126,15.436-6.144,22.991-2.679l1164.625,534.814c6.891,3.167,11.711,9.63,12.773,17.133l47.215,334.27
		c1.069,7.474-1.75,14.98-7.438,19.935C2182.184,2365.756,2176.971,2367.645,2171.676,2367.645z M1081.59,2008.356l1063.212,306.081
		l-40.718-288.17L989.613,1514.48L1081.59,2008.356z"/>
	<path fill="#F9C338" d="M1357.55,2589.932c-37.445,8.255-72.532,5.64-112.367-5.311
		c-97.511-26.801-160.547-120.858-129.169-235.015c33.679-122.469,147.786-204.93,279.777-168.656
		c103.439,28.437,153.072,120.099,125.764,219.38c-24.497,89.184-88.846,127.766-144.711,112.41
		c-23.776-6.536-41.374-28.633-29.611-64.41l-2.375-0.65c-30.456,29.353-62.55,39.071-98.221,29.269
		c-34.489-9.479-56.526-45.592-43.614-92.561c20.26-73.724,96.983-124.887,179.623-102.169c25.577,7.023,46.703,18.58,60.193,29.97
		l-49.791,102.055c-21.329,42.736-19.905,65.501-0.481,71.491c30.181,8.929,75.17-22.187,94.13-91.152
		c23.688-86.207-11.025-162.256-103.18-187.588c-96.896-26.637-199.452,27.664-232.614,148.358
		c-27.299,99.291,20.667,178.348,108.658,202.533c33.891,9.31,67.349,10.836,95.507,3.861L1357.55,2589.932z M1395.459,2324.103
		c-5.49-3.422-14.931-8.572-28.61-12.338c-52.318-14.385-108.084,23.363-123.928,81.031c-7.2,26.156,0.659,48.788,26.828,55.972
		c34.464,9.479,78.07-25.848,94.745-60.914L1395.459,2324.103z"/>
	<path fill="#A4DBF8" d="M2853.531,802.027c0-37.422-30.331-67.754-67.754-67.754c-12.35,0-23.886,3.348-33.855,9.131
		c-15.592-10.091-34.127-16.002-54.073-16.002c-28.872,0-54.812,12.328-73.026,31.917c-9.693-4.116-20.358-6.396-31.558-6.396
		c-44.652,0-80.873,36.196-80.873,80.862c0,44.645,36.221,80.848,80.873,80.848c14.757,0,28.549-4.016,40.468-10.927
		c17.33,14.572,39.689,23.364,64.116,23.364c39.946,0,74.311-23.516,90.259-57.42
		C2824.443,868.411,2853.531,838.647,2853.531,802.027z"/>
	<path fill="#A4DBF8" d="M2619.54,288.822c24.039-59.665-4.825-127.535-64.488-151.597c-19.691-7.934-40.272-10.019-59.874-7.207
		c-18.383-26.113-44.142-47.461-75.968-60.301c-46.029-18.555-95.319-15.563-136.956,3.93
		c-12.839-12.786-28.355-23.284-46.203-30.486c-71.267-28.708-152.236,5.741-180.961,76.969
		c-28.708,71.21,5.726,152.213,76.951,180.931c23.551,9.481,48.123,11.955,71.555,8.589c18.308,34.394,48.268,62.791,87.23,78.488
		c63.721,25.703,133.656,10.289,180.86-33.51C2530.46,376.019,2595.978,347.249,2619.54,288.822z"/>
	<path fill="#A4DBF8" d="M1177.172,189.814c19.516-32.262,9.183-74.212-23.061-93.727c-10.625-6.434-22.324-9.56-33.932-9.776
		c-8.193-16.826-21.079-31.582-38.264-41.985c-24.887-15.058-53.656-17.952-79.583-10.571c-6.206-8.614-14.204-16.135-23.869-21.981
		c-38.469-23.283-88.549-10.967-111.844,27.52c-23.276,38.493-10.948,88.566,27.53,111.849c12.705,7.693,26.688,11.42,40.562,11.677
		c7.334,21.596,22.046,40.845,43.09,53.583c34.413,20.825,76.298,18.483,107.723-2.411
		C1117.478,231.863,1158.063,221.384,1177.172,189.814z"/>
	<path fill="#CB7F5E" d="M1265.379,856.909c0,38.751-34.202,70.16-76.396,70.16c-42.195,0-76.397-31.408-76.397-70.16
		c0-38.749,34.202-70.157,76.397-70.157C1231.177,786.752,1265.379,818.16,1265.379,856.909z"/>
	<path fill="#CB7F5E" d="M1947.623,1099.419c0,38.753-34.201,70.166-76.386,70.166c-42.192,0-76.407-31.412-76.407-70.166
		c0-38.748,34.215-70.155,76.407-70.155C1913.421,1029.265,1947.623,1060.672,1947.623,1099.419z"/>
	<g>
		<g>
			<path fill="#252A5A" d="M448.898,3020.743c-4.218,16.188-9.874,29.184-16.986,38.986c-7.092,9.804-13.363,14.003-18.832,12.571
				c-5.306-1.373-8.642-8.075-9.979-20.052c-1.354-12.013,0.099-26.101,4.324-42.299c10.007-38.504,21.84-55.986,35.511-52.45
				C456.925,2961.146,458.925,2982.239,448.898,3020.743z"/>
		</g>
		<g>
			<path fill="#252A5A" d="M445.952,2957.515c12.625-3.469,29.688,14.073,51.222,52.651c9.088,16.231,14.75,30.337,16.97,42.344
				c2.248,11.985,0.923,18.686-3.957,20.035c-5.041,1.398-12.595-2.844-22.639-12.683c-10.035-9.839-19.568-22.876-28.641-39.103
				C437.344,2982.182,433.015,2961.093,445.952,2957.515z"/>
		</g>
	</g>
	<g>
		<g>
			<path fill="#252A5A" d="M234.476,2920.325c36.545,0,65.383,16.481,86.537,49.459c6.313,15.923,9.474,30.628,9.474,44.088v7.84
				c0,34.901-13.33,68.689-39.991,101.372c-4.665,4.677-7.828,7.014-9.484,7.014v1.237
				c78.849,87.365,118.428,132.839,118.696,136.406l1.231,7.833c-3.289,17.041-11.827,25.555-25.554,25.555
				c-9.625,0-24.312-11.536-44.09-34.605c-1.389-0.273-33.25-36.406-95.604-108.402c-17.303,8.804-31.6,15.4-42.857,19.788
				c7.66,54.137,16.877,93.014,27.601,116.645c5.481,4.389,8.234,10.153,8.234,17.308v5.353c0,11.266-8.107,18.278-24.316,21.021
				h-3.713c-25.562,0-45.055-59.206-58.515-177.633c-2.749-28.569-4.115-59.759-4.115-93.558
				c1.104-23.629,1.651-38.317,1.651-44.099c-7.149-4.946-10.717-12.497-10.717-22.664c12.646-32.141,36.679-56.597,72.143-73.36
				C212.076,2923.354,223.201,2921.144,234.476,2920.325z M189.12,3092.606v32.146l1.243,6.589
				c20.609-7.691,40.648-18.272,60.17-31.739c19.499-20.609,29.246-44.646,29.246-72.126v-7.005
				c0-20.322-10.299-33.113-30.901-38.332c-3.289-1.093-6.875-1.646-10.717-1.646h-5.358c-15.93,0.006-29.665,8.12-41.2,24.322
				C189.945,3025.16,189.12,3054.412,189.12,3092.606z"/>
		</g>
		<g>
			<path fill="#252A5A" d="M492.453,3082.272h9.474c24.173,0,41.624,14.018,52.348,42.031c1.104,4.686,1.639,8.667,1.639,11.962
				v14.834c-0.019,35.444-31.075,72.266-93.169,110.462c8.805,18.955,20.485,28.433,35.051,28.433h9.472
				c18.396,0,32.274-8.514,41.62-25.549c6.311-5.504,12.646-8.247,18.958-8.247c17.052,3.57,25.571,11.255,25.571,23.067v2.482
				c0,20.874-19.805,39.294-59.354,55.234c-11.288,2.736-19.791,4.117-25.543,4.117h-6.604c-43.698,0-73.774-24.161-90.269-72.526
				c-3.569-13.462-5.358-27.067-5.358-40.806c0-40.934,13.07-81.745,39.177-122.409
				C460.029,3089.968,475.699,3082.272,492.453,3082.272z M463.562,3199.33h1.657c29.151-20.337,43.717-39.846,43.717-58.527
				c-0.279-7.147-2.889-10.727-7.824-10.727C485.991,3130.076,473.507,3153.166,463.562,3199.33z"/>
		</g>
		<g>
			<path fill="#252A5A" d="M600.857,3078.972c17.029,3.035,25.555,10.99,25.555,23.897v26.795
				c-0.037,51.918,12.35,95.062,37.072,129.415h1.651c10.438-38.203,29.953-84.921,58.524-140.139
				c11.008-22.256,22.533-33.383,34.639-33.383c17.029,4.119,25.543,12.617,25.543,25.542c-1.37,7.692-12.907,30.774-34.626,69.244
				c-27.751,63.198-41.642,101.113-41.642,113.749c10.728,6.324,16.076,13.885,16.076,22.677c0,15.1-9.766,24.028-29.257,26.779
				c-6.052,7.151-12.771,10.721-20.196,10.721c-13.734,0.004-22.115-8.922-25.124-26.782v-10.705
				c-48.937-44.787-73.371-108.541-73.359-191.24v-17.31C575.713,3088.719,584.082,3078.972,600.857,3078.972z"/>
		</g>
		<g>
			<path fill="#252A5A" d="M858.868,3082.25h9.475c24.17,0,41.624,13.995,52.347,42.024c1.098,4.68,1.633,8.65,1.633,11.962v14.833
				c-0.012,35.434-31.069,72.269-93.163,110.465c8.799,18.947,20.486,28.432,35.052,28.432h9.474
				c18.394,0,32.271-8.526,41.618-25.562c6.31-5.491,12.645-8.234,18.957-8.234c17.052,3.568,25.565,11.259,25.565,23.071v2.472
				c0,20.882-19.805,39.298-59.349,55.229c-11.287,2.749-19.791,4.128-25.549,4.128h-6.598c-43.698,0-73.775-24.173-90.269-72.523
				c-3.576-13.458-5.358-27.063-5.358-40.807c0-40.933,13.069-81.742,39.177-122.411
				C826.443,3089.933,842.112,3082.25,858.868,3082.25z M829.977,3199.295h1.655c29.147-20.33,43.718-39.836,43.718-58.521
				c-0.279-7.147-2.893-10.723-7.829-10.723C852.406,3130.052,839.92,3153.131,829.977,3199.295z"/>
		</g>
		<g>
			<path fill="#252A5A" d="M1023.297,3076.862h2.482c28.019,0,53.289,18.284,75.82,54.819c4.942,10.985,7.412,18.412,7.412,22.258
				v2.471c-1.908,14.838-9.33,22.259-22.238,22.259h-2.482c-11.814,0-20.601-9.895-26.378-29.669
				c-12.095-16.5-23.637-24.734-34.616-24.734c-13.995,0-24.039,11.135-30.087,33.397v1.235c0,13.733,19.074,27.049,57.275,39.973
				c35.718,14.559,53.562,39.021,53.562,73.358c0,31.872-17.017,53.432-51.092,64.71c-15.117,4.117-28.846,6.171-41.206,6.171
				l-23.504,0.014c-23.352,0-35.039-7.425-35.039-22.25v-3.714c0-9.898,5.917-17.031,17.731-21.434h1.239
				c19.77,0.817,33.394,1.24,40.81,1.225c29.101,0,40.927-8.243,35.441-24.722c0-16.215-19.528-30.771-58.543-43.682
				c-29.392-17.309-44.088-41.348-44.072-72.12c0-26.927,15.378-50.964,46.146-72.129
				C1003.513,3079.362,1013.951,3076.862,1023.297,3076.862z"/>
		</g>
		<g>
			<path fill="#252A5A" d="M1388.48,2956.493c15.117-0.021,22.66,14.692,22.66,44.088c7.98,120.073,17.309,210.465,28.031,271.191
				l14.418,53.17v4.128c0,13.18-8.387,21.15-25.141,23.895c-14.284,0-24.997-14.146-32.156-42.438
				c-25.271,18.684-48.366,28.02-69.231,28.02h-4.109c-38.202,0.005-64.03-20.449-77.49-61.397
				c-3.586-14.569-5.368-28.033-5.368-40.397c0.028-69.231,24.047-115.527,72.164-138.899c18.384-7.964,36.656-11.947,54.795-11.947
				c-4.395-51.103-6.585-87.644-6.585-109.625C1363.764,2963.089,1373.102,2956.493,1388.48,2956.493z M1290.783,3238.392
				c0,24.734,6.743,40.683,20.213,47.823l6.592,1.224h5.364c24.975,0,44.089-13.326,57.277-39.981l2.88-11.951
				c-3.577-23.066-7.688-56.045-12.344-98.898c-36.823,0-61.686,19.22-74.63,57.693
				C1292.578,3209.134,1290.783,3223.839,1290.783,3238.392z"/>
		</g>
		<g>
			<path fill="#252A5A" d="M1580.529,2877.48c-6.801,20.509-16.582,36.309-29.404,47.396c-12.809,11.094-24.502,14.89-35.043,11.388
				c-10.249-3.384-17.134-13.347-20.65-29.829c-3.5-16.494-1.832-34.994,4.963-55.509c16.176-48.761,37.429-68.767,63.838-60.032
				C1591.255,2799.845,1596.703,2828.724,1580.529,2877.48z"/>
		</g>
		<g>
			<path fill="#252A5A" d="M1613.482,2905.754c16.191,0,27.193,15.234,32.954,45.729c7.131,20.888,26.768,85.997,58.943,195.359
				h1.23c14.554-0.822,23.19-1.226,25.955-1.226c11.265,0,18.535,7.539,21.849,22.648v7.003
				c-3.599,14.293-12.258,21.453-25.984,21.453h-8.242v1.237c15.656,70.616,23.484,106.881,23.484,108.799v5.365
				c0,11.262-7.828,18.539-23.484,21.838h-6.602c-14,0-24.991-21.286-32.976-63.887c-7.968-42.578-13.044-65.251-15.238-67.993
				c-65.688,4.679-98.502,7.834-98.502,9.485c-3.858,13.739-7.56,53.168-11.146,118.288c-6.314,10.707-14.949,16.065-25.957,16.065
				c-16.476-3.836-24.712-11.938-24.712-24.3c0-89.032,20.073-185.064,60.176-288.101c14.565-30.229,25.979-52.208,34.221-65.949
				l-11.944-35.032C1591.35,2914.676,1600.003,2905.754,1613.482,2905.754z M1614.702,3045.465
				c-13.187,28.581-26.376,66.907-39.566,114.99l74.587-5.364v-1.234C1629.116,3083.528,1617.428,3047.396,1614.702,3045.465z"/>
		</g>
		<g>
			<path fill="#252A5A" d="M1793.958,3059.042h1.249c15.937,2.476,23.894,10.037,23.894,22.678h1.231
				c-0.82,8.24-2.056,30.083-3.691,65.535v1.227h1.233c18.977-42.864,42.037-64.294,69.241-64.294
				c43.428,0,68.838,45.888,76.241,137.65c0.813,5.219,1.239,15.936,1.239,32.148v34.616c0,30.23-5.228,45.336-15.67,45.336
				c0,1.927-2.342,2.887-6.991,2.887h-5.387c-15.915-3.854-23.894-11.403-23.894-22.673c1.922-18.672,2.87-40.112,2.87-64.299
				v-17.309c0.028-64.839-10.274-97.264-30.89-97.264c-12.361,0-24.863,22.254-37.515,66.783
				c-12.362,59.903-18.542,99.043-18.542,117.465c-6.043,11.536-13.203,17.307-21.445,17.307h-6.577
				c-23.092,0-34.616-49.047-34.616-147.138c0.012-34.072,0.545-61.136,1.661-81.199c1.899-29.39,5.354-44.095,10.299-44.095
				C1784.769,3060.839,1790.133,3059.042,1793.958,3059.042z"/>
		</g>
		<g>
			<path fill="#252A5A" d="M2101.847,3082.517c26.652,0,39.975,9.474,39.975,28.438c-4.128,15.934-11.671,23.897-22.661,23.897
				c-2.196,0-8.811-0.412-19.796-1.236c-23.067,0.012-41.896,20.888-56.49,62.658c-3.557,14.84-5.354,27.756-5.354,38.735v13.188
				c1.937,25.839,7.847,38.754,17.745,38.754h1.23c28.031-0.019,50.273-38.202,66.78-114.593c0-26.926,8.938-40.398,26.785-40.398
				c18.703,0,28.042,17.871,28.009,53.587c8.793,67.603,13.187,124.613,13.187,171.041c15.937,7.956,23.908,17.714,23.908,29.257
				c0,14.28-8.805,22.81-26.373,25.553c-0.017,29.687-20.475,53.17-61.438,70.482c-6.875,1.912-13.188,2.889-18.952,2.889
				c-34.899,0.012-55.375-24.449-61.38-73.351v-9.486c0-34.068,17.844-57.281,53.564-69.655c6.031-0.831,10.85-1.237,14.424-1.237
				h1.651c6.044,0,14.417,0.958,25.143,2.888v-1.651c0-1.916-0.833-18.272-2.482-49.045c-20.876,29.119-41.345,46.427-61.396,51.934
				c-11.271,1.652-18.82,2.476-22.66,2.476c-29.968,0-50.983-17.72-63.059-53.172c-3.594-14.281-5.366-28.565-5.366-42.863v-4.119
				c0-52.465,17.859-96.432,53.58-131.883C2058.839,3090.218,2079.313,3082.524,2101.847,3082.517z M2097.703,3401.925v5.354
				c1.896,17.86,5.057,26.798,9.451,26.798h1.249c13.729,0,24.858-10.316,33.402-30.919v-16.069
				c-9.626-3.572-17.6-5.358-23.912-5.358h-4.119C2104.707,3381.73,2099.354,3388.459,2097.703,3401.925z"/>
		</g>
		<g>
			<path fill="#252A5A" d="M2294.73,3082.099h9.492c24.154-0.013,41.602,13.996,52.325,42.013c1.104,4.684,1.643,8.664,1.643,11.967
				v14.826c-0.01,35.448-31.069,72.265-93.157,110.467c8.793,18.958,20.47,28.431,35.035,28.431l9.49-0.005
				c18.381,0,32.273-8.51,41.612-25.543c6.313-5.498,12.653-8.242,18.964-8.242c17.047,3.566,25.561,11.263,25.561,23.074v2.472
				c0,20.89-19.801,39.298-59.356,55.228c-11.269,2.737-19.784,4.122-25.543,4.122l-6.602,0.01c-43.707,0-73.777-24.17-90.259-72.54
				c-3.58-13.451-5.365-27.062-5.365-40.805c0-40.933,13.089-81.741,39.167-122.401
				C2262.3,3089.785,2277.969,3082.099,2294.73,3082.099z M2265.853,3199.148h1.65c29.146-20.343,43.704-39.856,43.704-58.537
				c-0.267-7.147-2.864-10.721-7.81-10.709C2288.281,3129.902,2275.785,3152.98,2265.853,3199.148z"/>
		</g>
		<g>
			<path fill="#252A5A" d="M2459.178,3076.711h2.47c28.013,0.001,53.283,18.289,75.816,54.801
				c4.952,10.997,7.435,18.419,7.435,22.267v2.47c-1.92,14.838-9.334,22.256-22.261,22.264h-2.48
				c-11.804,0-20.599-9.886-26.365-29.669c-12.111-16.491-23.641-24.732-34.614-24.732c-14.018,0-24.054,11.119-30.105,33.384v1.23
				c0,13.742,19.087,27.07,57.281,39.984c35.716,14.569,53.568,39.016,53.568,73.356c0,31.874-17.023,53.447-51.103,64.716
				c-15.123,4.122-28.844,6.173-41.201,6.173h-23.502c-23.364,0.009-35.035-7.402-35.035-22.236v-3.711
				c0-9.903,5.9-17.034,17.727-21.44h1.232c19.765,0.811,33.395,1.233,40.811,1.233c29.112,0.002,40.927-8.241,35.439-24.728
				c0-16.215-19.514-30.778-58.537-43.69c-29.377-17.296-44.088-41.333-44.076-72.109c0-26.93,15.378-50.975,46.164-72.138
				C2439.377,3079.194,2449.822,3076.711,2459.178,3076.711z"/>
		</g>
	</g>
	<path fill="#575756" d="M373.432,3652.923v-127.614h86.09v15.068H390.32v39.518h59.887v15.058H390.32v57.971H373.432z"/>
	<path fill="#575756" d="M539.774,3641.521c-5.795,4.932-11.386,8.415-16.75,10.444c-5.371,2.032-11.13,3.05-17.28,3.05
		c-10.165,0-17.964-2.484-23.415-7.444c-5.463-4.963-8.184-11.298-8.184-19.018c0-4.531,1.024-8.665,3.088-12.405
		c2.062-3.746,4.764-6.749,8.102-9.01c3.329-2.261,7.083-3.978,11.262-5.133c3.088-0.818,7.725-1.604,13.938-2.353
		c12.645-1.513,21.963-3.313,27.942-5.4c0.052-2.147,0.082-3.51,0.082-4.088c0-6.383-1.477-10.881-4.441-13.499
		c-4.004-3.532-9.949-5.305-17.841-5.305c-7.369,0-12.816,1.29-16.326,3.875c-3.504,2.581-6.104,7.151-7.787,13.71l-15.32-2.093
		c1.395-6.555,3.685-11.849,6.874-15.887c3.196-4.028,7.806-7.133,13.844-9.313c6.039-2.179,13.024-3.266,20.976-3.266
		c7.893,0,14.31,0.936,19.237,2.79c4.93,1.86,8.561,4.191,10.879,7.01c2.33,2.813,3.953,6.365,4.876,10.659
		c0.523,2.667,0.786,7.49,0.786,14.446v20.895c0,14.565,0.33,23.783,0.999,27.636c0.669,3.864,1.994,7.562,3.957,11.101h-16.358
		C541.29,3649.671,540.244,3645.874,539.774,3641.521z M538.477,3606.526c-5.694,2.32-14.217,4.296-25.59,5.921
		c-6.452,0.931-11.008,1.974-13.675,3.135c-2.667,1.156-4.725,2.854-6.179,5.091c-1.446,2.238-2.173,4.719-2.173,7.443
		c0,4.175,1.582,7.662,4.741,10.441c3.163,2.79,7.789,4.177,13.893,4.177c6.026,0,11.396-1.316,16.098-3.957
		c4.695-2.642,8.154-6.255,10.352-10.834c1.685-3.545,2.533-8.762,2.533-15.669V3606.526z"/>
	<path fill="#575756" d="M638.93,3619.061l15.394,2.005c-1.674,10.616-5.986,18.933-12.912,24.936
		c-6.939,6.011-15.449,9.014-25.555,9.014c-12.647,0-22.818-4.134-30.508-12.407c-7.694-8.271-11.537-20.12-11.537-35.558
		c0-9.984,1.657-18.718,4.958-26.199c3.313-7.486,8.348-13.104,15.105-16.843c6.76-3.748,14.118-5.621,22.067-5.621
		c10.044,0,18.256,2.54,24.637,7.619c6.382,5.075,10.468,12.286,12.27,21.633l-15.229,2.353c-1.452-6.21-4.021-10.883-7.705-14.018
		c-3.685-3.133-8.136-4.697-13.367-4.697c-7.895,0-14.299,2.826-19.227,8.48c-4.939,5.664-7.403,14.612-7.403,26.859
		c0,12.418,2.377,21.44,7.131,27.069c4.766,5.632,10.979,8.444,18.633,8.444c6.155,0,11.292-1.888,15.407-5.66
		C635.216,3632.697,637.826,3626.896,638.93,3619.061z"/>
	<path fill="#575756" d="M667.827,3543.335v-18.026h15.669v18.026H667.827z M667.827,3652.923v-92.443h15.669v92.443H667.827z"/>
	<path fill="#575756" d="M706.998,3652.923v-127.614h15.669v127.614H706.998z"/>
	<path fill="#575756" d="M747.042,3543.335v-18.026h15.663v18.026H747.042z M747.042,3652.923v-92.443h15.663v92.443H747.042z"/>
	<path fill="#575756" d="M820.766,3638.911l2.271,13.837c-4.416,0.936-8.361,1.396-11.837,1.396c-5.696,0-10.107-0.901-13.24-2.696
		c-3.132-1.803-5.336-4.168-6.613-7.096c-1.278-2.934-1.906-9.097-1.906-18.5v-53.187h-11.496v-12.186h11.496v-22.893l15.575-9.404
		v32.297h15.751v12.186h-15.751v54.056c0,4.473,0.269,7.347,0.826,8.616c0.546,1.284,1.453,2.296,2.696,3.051
		s3.034,1.128,5.352,1.128C815.633,3639.516,817.917,3639.317,820.766,3638.911z"/>
	<path fill="#575756" d="M899.376,3623.155l16.18,2.005c-2.546,9.453-7.276,16.799-14.18,22.021
		c-6.911,5.223-15.729,7.834-26.462,7.834c-13.523,0-24.24-4.166-32.169-12.489c-7.921-8.329-11.88-20.01-11.88-35.039
		c0-15.552,4.011-27.625,12.02-36.21c8.003-8.594,18.39-12.89,31.151-12.89c12.368,0,22.458,4.214,30.305,12.625
		c7.822,8.415,11.744,20.254,11.744,35.515c0,0.934-0.028,2.32-0.086,4.179h-68.941c0.58,10.155,3.446,17.93,8.614,23.329
		c5.165,5.399,11.606,8.096,19.324,8.096c5.748,0,10.651-1.504,14.709-4.527C893.774,3634.586,896.995,3629.77,899.376,3623.155z
		 M847.929,3597.826h51.611c-0.693-7.775-2.656-13.613-5.912-17.501c-4.991-6.038-11.466-9.049-19.405-9.049
		c-7.2,0-13.257,2.401-18.151,7.225C851.163,3583.314,848.447,3589.76,847.929,3597.826z"/>
	<path fill="#575756" d="M935.055,3652.923v-92.443h14.112v14.016c3.592-6.557,6.922-10.879,9.966-12.97
		c3.047-2.087,6.395-3.139,10.051-3.139c5.282,0,10.651,1.687,16.104,5.051l-5.394,14.541c-3.836-2.266-7.66-3.399-11.496-3.399
		c-3.416,0-6.503,1.033-9.229,3.091c-2.72,2.064-4.661,4.918-5.822,8.573c-1.743,5.574-2.622,11.665-2.622,18.285v48.395H935.055z"
		/>
	<path fill="#575756" d="M1069.81,3652.923l-35.168-92.443h16.541l19.842,55.364c2.15,5.975,4.126,12.182,5.927,18.626
		c1.391-4.875,3.336-10.739,5.83-17.579l20.546-56.411h16.098l-34.994,92.443H1069.81z"/>
	<path fill="#575756" d="M1127.434,3606.701c0-17.122,4.766-29.802,14.274-38.041c7.955-6.85,17.65-10.273,29.077-10.273
		c12.711,0,23.103,4.168,31.162,12.489c8.066,8.329,12.108,19.834,12.108,34.521c0,11.894-1.791,21.257-5.367,28.074
		c-3.555,6.811-8.758,12.105-15.574,15.878c-6.817,3.772-14.256,5.666-22.329,5.666c-12.944,0-23.398-4.154-31.379-12.452
		C1131.426,3634.267,1127.434,3622.313,1127.434,3606.701z M1143.544,3606.701c0,11.839,2.574,20.701,7.742,26.589
		c5.168,5.894,11.665,8.836,19.499,8.836c7.775,0,14.25-2.957,19.411-8.875c5.166-5.921,7.746-14.943,7.746-27.079
		c0-11.425-2.591-20.084-7.787-25.984c-5.194-5.884-11.652-8.827-19.37-8.827c-7.834,0-14.331,2.927-19.499,8.792
		C1146.119,3586.012,1143.544,3594.861,1143.544,3606.701z"/>
	<path fill="#575756" d="M1266.623,3638.904l2.261,13.844c-4.404,0.928-8.352,1.389-11.833,1.389c-5.683,0-10.089-0.9-13.228-2.699
		c-3.139-1.798-5.343-4.158-6.618-7.086c-1.274-2.934-1.92-9.103-1.92-18.507v-53.18h-11.488v-12.186h11.488v-22.893l15.587-9.404
		v32.297h15.751v12.186h-15.751v54.056c0,4.467,0.274,7.341,0.833,8.616c0.545,1.274,1.439,2.29,2.695,3.051
		c1.243,0.749,3.028,1.128,5.348,1.128C1261.49,3639.516,1263.781,3639.311,1266.623,3638.904z"/>
	<path fill="#575756" d="M1281.775,3652.923v-92.443h14.1v14.009c3.596-6.554,6.922-10.883,9.968-12.969
		c3.045-2.089,6.396-3.133,10.049-3.133c5.288,0,10.651,1.687,16.11,5.044l-5.4,14.543c-3.83-2.261-7.66-3.395-11.49-3.395
		c-3.417,0-6.497,1.029-9.228,3.091c-2.729,2.058-4.669,4.918-5.83,8.573c-1.743,5.574-2.609,11.665-2.609,18.279v48.4H1281.775z"/>
	<path fill="#575756" d="M1404.596,3623.155l16.192,1.998c-2.55,9.46-7.28,16.8-14.186,22.027
		c-6.905,5.215-15.735,7.834-26.469,7.834c-13.519,0-24.24-4.166-32.156-12.495c-7.921-8.331-11.893-20.01-11.893-35.033
		c0-15.552,4.013-27.625,12.02-36.217c8.009-8.587,18.396-12.883,31.158-12.883c12.368,0,22.461,4.205,30.298,12.625
		c7.828,8.415,11.745,20.254,11.745,35.515c0,0.925-0.023,2.32-0.089,4.179h-68.934c0.574,10.155,3.453,17.93,8.612,23.329
		c5.17,5.394,11.607,8.092,19.333,8.092c5.74,0,10.639-1.511,14.703-4.523C1398.994,3634.58,1402.22,3629.77,1404.596,3623.155z
		 M1353.15,3597.82h51.621c-0.695-7.779-2.667-13.607-5.917-17.495c-4.991-6.038-11.466-9.056-19.411-9.056
		c-7.2,0-13.25,2.408-18.148,7.224C1356.382,3583.314,1353.675,3589.754,1353.15,3597.82z"/>
	<path fill="#575756" d="M1548.923,3688.348v-45.264c-2.441,3.424-5.849,6.265-10.23,8.525c-4.382,2.273-9.043,3.399-13.977,3.399
		c-10.961,0-20.41-4.382-28.327-13.14c-7.921-8.764-11.88-20.777-11.88-36.042c0-9.279,1.61-17.608,4.829-24.983
		c3.221-7.368,7.895-12.955,14.021-16.754c6.113-3.808,12.838-5.703,20.143-5.703c11.438,0,20.436,4.813,26.991,14.448v-12.355
		h14.098v127.868H1548.923z M1500.609,3606.434c0,11.896,2.493,20.818,7.492,26.771c4.985,5.944,10.959,8.922,17.93,8.922
		c6.672,0,12.42-2.829,17.236-8.487c4.813-5.66,7.226-14.258,7.226-25.81c0-12.299-2.546-21.563-7.627-27.769
		c-5.079-6.208-11.028-9.312-17.877-9.312c-6.794,0-12.559,2.882-17.283,8.659
		C1502.974,3585.181,1500.609,3594.195,1500.609,3606.434z"/>
	<path fill="#575756" d="M1649.722,3652.923v-13.581c-7.2,10.442-16.974,15.667-29.332,15.667c-5.456,0-10.553-1.046-15.283-3.135
		c-4.727-2.09-8.236-4.716-10.525-7.878c-2.296-3.161-3.906-7.032-4.836-11.623c-0.634-3.069-0.951-7.945-0.951-14.617v-57.276
		h15.666v51.266c0,8.182,0.32,13.693,0.955,16.541c0.988,4.122,3.072,7.353,6.277,9.706c3.184,2.345,7.131,3.522,11.832,3.522
		c4.694,0,9.113-1.202,13.229-3.613c4.119-2.402,7.036-5.687,8.745-9.832c1.715-4.152,2.563-10.174,2.563-18.067v-49.522h15.669
		v92.443H1649.722z"/>
	<path fill="#575756" d="M1682.452,3606.701c0-17.122,4.76-29.802,14.278-38.045c7.951-6.848,17.639-10.27,29.078-10.27
		c12.704,0,23.095,4.168,31.157,12.489c8.072,8.329,12.1,19.831,12.1,34.518c0,11.896-1.778,21.254-5.353,28.075
		c-3.567,6.813-8.77,12.107-15.58,15.88c-6.819,3.772-14.271,5.66-22.324,5.66c-12.945,0-23.412-4.148-31.384-12.448
		C1686.444,3634.265,1682.452,3622.313,1682.452,3606.701z M1698.556,3606.701c0,11.837,2.58,20.701,7.752,26.589
		c5.168,5.894,11.659,8.836,19.5,8.836c7.774,0,14.238-2.959,19.406-8.875c5.166-5.923,7.751-14.943,7.751-27.079
		c0-11.425-2.598-20.091-7.8-25.984c-5.188-5.888-11.645-8.827-19.357-8.827c-7.841,0-14.332,2.927-19.5,8.79
		C1701.136,3586.012,1698.556,3594.861,1698.556,3606.701z"/>
	<path fill="#575756" d="M1821.644,3638.904l2.261,13.844c-4.404,0.925-8.357,1.389-11.837,1.389c-5.69,0-10.098-0.9-13.234-2.701
		c-3.128-1.796-5.34-4.156-6.613-7.084c-1.278-2.936-1.912-9.103-1.912-18.507v-53.184h-11.49v-12.182h11.49v-22.895l15.576-9.402
		v32.297h15.76v12.182h-15.76v54.056c0,4.471,0.279,7.341,0.829,8.62c0.546,1.272,1.448,2.29,2.698,3.047
		c1.249,0.753,3.027,1.132,5.358,1.132C1816.501,3639.516,1818.803,3639.311,1821.644,3638.904z"/>
	<path fill="#575756" d="M1837.052,3543.329v-18.022h15.668v18.022H1837.052z M1837.052,3652.923v-92.443h15.668v92.443H1837.052z"
		/>
	<path fill="#575756" d="M1936.547,3652.923v-11.665c-5.865,9.166-14.479,13.751-25.853,13.751c-7.375,0-14.151-2.026-20.324-6.091
		c-6.186-4.062-10.974-9.734-14.366-17.019c-3.394-7.281-5.092-15.655-5.092-25.116c0-9.224,1.534-17.598,4.615-25.108
		c3.073-7.521,7.689-13.279,13.838-17.283c6.147-4.005,13.024-6.005,20.632-6.005c5.573,0,10.531,1.178,14.885,3.522
		c4.346,2.354,7.891,5.411,10.623,9.183v-45.785h15.576v127.616H1936.547z M1887.016,3606.783c0,11.839,2.495,20.688,7.479,26.548
		c4.994,5.865,10.886,8.795,17.68,8.795c6.842,0,12.66-2.803,17.454-8.399c4.784-5.596,7.172-14.146,7.172-25.637
		c0-12.651-2.429-21.938-7.305-27.855c-4.883-5.922-10.88-8.874-18.019-8.874c-6.963,0-12.785,2.839-17.451,8.525
		C1889.353,3585.574,1887.016,3594.54,1887.016,3606.783z"/>
	<path fill="#575756" d="M1975.8,3543.329v-18.022h15.669v18.022H1975.8z M1975.8,3652.923v-92.443h15.669v92.443H1975.8z"/>
	<path fill="#575756" d="M2078.605,3623.151l16.197,2.002c-2.557,9.456-7.287,16.798-14.192,22.021
		c-6.909,5.222-15.73,7.835-26.46,7.835c-13.525,0-24.248-4.162-32.163-12.489c-7.927-8.333-11.886-20.01-11.886-35.037
		c0-15.548,4.004-27.621,12.013-36.217c8.009-8.583,18.394-12.879,31.158-12.879c12.366,0,22.464,4.203,30.296,12.625
		c7.837,8.415,11.753,20.25,11.753,35.515c0,0.925-0.03,2.32-0.088,4.177h-68.94c0.577,10.157,3.457,17.932,8.619,23.331
		c5.161,5.392,11.606,8.092,19.324,8.092c5.748,0,10.644-1.513,14.705-4.526C2073.003,3634.58,2076.228,3629.766,2078.605,3623.151z
		 M2027.165,3597.818h51.615c-0.691-7.779-2.667-13.61-5.917-17.497c-4.986-6.034-11.459-9.056-19.41-9.056
		c-7.197,0-13.246,2.412-18.151,7.226C2030.402,3583.312,2027.688,3589.752,2027.165,3597.818z"/>
	<path fill="#575756" d="M2114.471,3652.923v-92.443h14.098v13.142c6.795-10.155,16.601-15.234,29.427-15.234
		c5.567,0,10.694,1.001,15.365,3.003c4.674,1.998,8.167,4.628,10.487,7.878c2.322,3.247,3.944,7.108,4.88,11.576
		c0.577,2.907,0.868,7.98,0.868,15.232v56.847h-15.669v-56.235c0-6.382-0.611-11.158-1.832-14.321
		c-1.215-3.161-3.383-5.688-6.48-7.572c-3.11-1.889-6.748-2.824-10.926-2.824c-6.672,0-12.437,2.112-17.278,6.347
		c-4.848,4.236-7.271,12.278-7.271,24.113v50.493H2114.471z"/>
</g>
</svg>
